<svg xmlns="http://www.w3.org/2000/svg"
    width="256" height="256" viewBox="0 0 1000 1000">
    <g stroke-linecap="round" stroke-linejoin="round"
        stroke-width="10" stroke="white"
        fill="white">
        <path d="M 400,180 m -370,500
            l 500,80
            a 60,120 -10,0,1 40,200
            l -500,-80 z" />
    </g>
    <g stroke-linecap="round" stroke-linejoin="round"
        stroke-width="10" stroke="black"
        fill="rgb(100,215,255)">
        <path d="M 400,180 l 500,80
            a 60,120 -10,0,1 40,200
            l -370,500
            a 60,120 -10,0,0 -40,-200
            l -500,-80 z"/>
    </g>
    <g stroke-linecap="round" stroke-linejoin="round"
        stroke-width="10" stroke="black"
        fill="none">
        <path d="M 400,180 m -370,500
            m 5,25 l 475,76 m -475,-76
            m 5,25 l 500,80 m -500,-80
            m 5,25 l 500,80 m -500,-80
            m 5,25 l 500,80 m -500,-80
            m 5,25 l 500,80 m -500,-80
            m 5,25 l 500,80 m -500,-80
            m 5,25 l 475,76 m -475,-76
            m 5,25 l 500,80 m -500,-80 z" />
        <path d="M 400,180 m 500,80
            l -370,500
            M 400,200 z" />
    </g>
    <g stroke-linecap="round" stroke-linejoin="round"
        stroke-width="10" stroke="none"
        fill="rgba(0,0,0,0.75)">
        <path d="M 550,435
            a 90,50 0,1,1 -150,0
            M 550,430 z"/>
    </g>
    <g stroke-linecap="round" stroke-linejoin="round"
        stroke-width="10" stroke="black"
        fill="white">
        <path d="M 550,460
            a 75,40 0,0,1 -150,0
            s 0,-200 -250,-230
            a 65,65 0,0,1 50,-150
            s 350,50 350,380
            z" />
    </g>
</svg>